<?xml version="1.0" encoding="UTF-8"?>
<!DOCTYPE svg PUBLIC "-//W3C//DTD SVG 1.1//EN" "http://www.w3.org/Graphics/SVG/1.1/DTD/svg11.dtd">
<!-- Creator: CorelDRAW 2021 (64-Bit) -->
<svg xmlns="http://www.w3.org/2000/svg" xml:space="preserve" width="4.67472in" height="0.989063in" version="1.1" style="shape-rendering:geometricPrecision; text-rendering:geometricPrecision; image-rendering:optimizeQuality; fill-rule:evenodd; clip-rule:evenodd"
viewBox="0 0 4674.3 988.97"
 xmlns:xlink="http://www.w3.org/1999/xlink"
 xmlns:xodm="http://www.corel.com/coreldraw/odm/2003">
 <defs>
  <style type="text/css">
   <![CDATA[
    .fil0 {fill:white;fill-rule:nonzero}
   ]]>
  </style>
 </defs>
 <g id="Layer_x0020_1">
  <metadata id="CorelCorpID_0Corel-Layer"/>
  <path class="fil0" d="M494.49 0c136.53,0 260.16,55.36 349.64,144.85 89.48,89.48 144.85,213.11 144.85,349.64 0,136.53 -55.36,260.16 -144.85,349.64 -89.48,89.48 -213.11,144.85 -349.64,144.85 -136.53,0 -260.16,-55.36 -349.64,-144.85 -89.48,-89.48 -144.85,-213.11 -144.85,-349.64 0,-136.53 55.36,-260.16 144.85,-349.64 89.48,-89.48 213.11,-144.85 349.64,-144.85zm226.55 730.01c-125.33,-5.51 -225.26,-108.84 -225.26,-235.53 0,-126.68 99.92,-230.02 225.26,-235.53 -58.73,-56.51 -138.58,-91.27 -226.55,-91.27 -90.25,0 -171.95,36.58 -231.09,95.71 -59.13,59.13 -95.71,140.84 -95.71,231.09 0,90.25 36.58,171.95 95.71,231.09 59.13,59.13 140.84,95.71 231.09,95.71 87.97,0 167.8,-34.74 226.55,-91.27z"/>
  <path class="fil0" d="M1540.41 209.65c31.45,0.52 63.87,1.86 97.27,4 33.38,2.13 66.77,6.15 100.15,12l-5.78 51.18c-27.6,-1.07 -58.11,-2.01 -91.5,-2.8 -33.38,-0.79 -65.48,-1.19 -96.31,-1.19 -23.77,0 -44.14,0.67 -61.17,2.01 -17.01,1.34 -30.97,4.54 -41.89,9.6 -10.9,5.08 -18.79,13.34 -23.6,24.79 -4.81,11.46 -7.21,27.32 -7.21,47.59 0,30.39 6.59,51.58 19.75,63.57 13.16,12 34.51,20.92 64.03,26.8l134.85 27.99c51.37,10.14 86.5,27.86 105.46,53.19 18.94,25.33 28.41,59.32 28.41,101.97 0,32 -4.34,57.85 -13,77.58 -8.67,19.72 -21.99,34.8 -39.96,45.18 -17.98,10.39 -41.09,17.59 -69.35,21.59 -28.24,4 -61.63,6 -100.15,6 -21.82,0 -50.25,-0.8 -85.23,-2.41 -34.98,-1.6 -75.28,-5.87 -120.86,-12.79l5.78 -51.98c37.87,1.07 68.39,1.98 91.48,2.8 23.11,0.8 43.01,1.19 59.71,1.19 16.7,0 34.02,0 52,0 34.02,0 60.84,-2.13 80.42,-6.4 19.58,-4.27 33.38,-12.8 41.4,-25.6 8.02,-12.79 12.04,-31.73 12.04,-56.79 0,-21.32 -2.88,-37.84 -8.66,-49.59 -5.78,-11.73 -14.92,-20.65 -27.45,-26.8 -12.52,-6.12 -28.41,-11.06 -47.67,-14.8l-137.71 -28.79c-48.15,-10.14 -82.03,-27.71 -101.62,-52.79 -19.58,-25.06 -29.38,-58.64 -29.38,-100.78 0,-32 4.35,-57.73 12.99,-77.19 8.68,-19.46 21.82,-34.13 39.48,-43.99 17.66,-9.87 39.97,-16.4 66.92,-19.61 26.96,-3.2 59.07,-4.81 96.31,-4.81l0.03 0.07 0 0zm593.25 -0.79c48.15,0 89.09,4.81 122.78,14.4 33.71,9.6 60.67,25.45 80.9,47.59 20.23,22.14 34.98,51.58 44.31,88.39 9.3,36.79 13.96,82.1 13.96,135.96 0,53.87 -4.66,99.17 -13.96,135.96 -9.33,36.79 -24.08,66.25 -44.31,88.37 -20.23,22.14 -47.19,38 -80.9,47.59 -33.71,9.6 -74.64,14.4 -122.78,14.4 -48.15,0 -89.1,-4.81 -122.78,-14.4 -33.71,-9.6 -60.84,-25.45 -81.39,-47.59 -20.54,-22.14 -35.47,-51.58 -44.79,-88.37 -9.3,-36.79 -13.97,-82.12 -13.97,-135.96 0,-53.86 4.66,-99.18 13.97,-135.96 9.3,-36.79 24.24,-66.25 44.79,-88.39 20.55,-22.14 47.67,-38 81.39,-47.59 33.71,-9.6 74.64,-14.4 122.78,-14.4zm0 63.18c-43.67,0 -78.17,6.95 -103.54,20.8 -25.37,13.88 -43.35,36.93 -53.95,69.18 -10.57,32.25 -15.88,76.64 -15.88,133.16 0,55.98 5.3,100.23 15.88,132.76 10.6,32.52 28.56,55.72 53.95,69.58 25.35,13.86 59.88,20.8 103.54,20.8 43.67,0 78.17,-6.94 103.54,-20.8 25.37,-13.85 43.35,-37.06 53.94,-69.58 10.61,-32.52 15.88,-76.78 15.88,-132.76 0,-56.51 -5.28,-100.91 -15.88,-133.16 -10.59,-32.27 -28.56,-55.33 -53.94,-69.18 -25.35,-13.85 -59.88,-20.8 -103.54,-20.8zm487.34 -52.8l0 439.89c0,18.12 5.28,31.45 15.88,39.98 10.6,8.52 26.79,12.79 48.63,12.79l239.81 0 3.84 54.38c-41.74,2.68 -84.27,4.27 -127.61,4.81 -43.35,0.52 -86.51,0.8 -129.54,0.8 -48.8,0 -83.48,-9.87 -104.02,-29.6 -20.55,-19.72 -30.81,-44.52 -30.81,-74.38l0 -448.69 83.8 0 0.02 0.02 0 0zm535.48 -0.79c32.11,0 64.38,0 96.79,0 32.42,0 64.53,0.39 96.31,1.19 31.79,0.79 62.45,2.01 91.98,3.59l-3.84 55.18 -266.79 0c-19.9,0 -34.51,4.14 -43.82,12.39 -9.3,8.27 -13.97,21.73 -13.97,40.4l0 327.9c0,18.67 4.66,32.27 13.97,40.8 9.3,8.53 23.92,12.79 43.82,12.79l266.79 0 3.84 54.38c-29.52,1.6 -60.2,2.68 -91.98,3.2 -31.76,0.55 -63.89,0.94 -96.31,1.22 -32.42,0.27 -64.68,0.39 -96.79,0.39 -39.17,0 -70.14,-8.68 -92.94,-26 -22.78,-17.33 -34.51,-40.65 -35.15,-69.98l0 -361.51c0.65,-29.87 12.35,-53.32 35.15,-70.37 22.79,-17.07 53.77,-25.6 92.94,-25.6l0 0.03zm-110.75 232.75l354.43 0 0 56.78 -354.43 0 0 -56.78zm756.99 -239.14c51.37,0 92.78,4.66 124.23,14 31.45,9.32 54.41,25.45 68.87,48.39 14.44,22.92 21.65,55.18 21.65,96.77 0,29.87 -4.15,54.8 -12.52,74.78 -8.34,20 -21.34,35.45 -39,46.38 -17.66,10.93 -41.24,17.99 -70.78,21.18l0 4c10.91,2.13 21.67,6.54 32.27,13.19 10.6,6.66 20.38,15.46 29.39,26.39 8.98,10.93 15.72,24.14 20.23,39.58l64.51 174.35 -90.54 0 -58.75 -172.76c-8.36,-20.79 -19.58,-35.59 -33.71,-44.4 -14.12,-8.8 -32.42,-13.21 -54.88,-13.21 -39.17,0 -73.19,-0.12 -102.1,-0.39 -28.88,-0.28 -52.97,-0.67 -72.23,-1.22 -19.25,-0.52 -34.68,-0.79 -46.23,-0.79l2.88 -58.38 214.77 0c32.75,-0.52 58.59,-3.74 77.54,-9.6 18.94,-5.87 32.58,-16.4 40.93,-31.6 8.34,-15.2 12.52,-36.39 12.52,-63.58 0,-27.19 -4.18,-48.11 -12.52,-62.78 -8.34,-14.67 -21.99,-24.93 -40.93,-30.78 -18.94,-5.87 -44.79,-8.8 -77.54,-8.8 -52.65,0 -98.08,0.28 -136.29,0.8 -38.21,0.55 -64.03,0.79 -77.51,0.79l-13.48 -55.18c24.41,-2.13 47.18,-3.72 68.39,-4.81 21.19,-1.07 44.48,-1.73 69.83,-2.01 25.37,-0.27 55.72,-0.39 91.02,-0.39l0 0.06 -0.01 0.03zm-145.42 7.19l0 551.85 -83.8 0 0 -551.85 83.8 0zm771.42 0c7.71,0 14.44,1.74 20.23,5.2 5.78,3.47 9.64,8.13 11.56,14l213.8 532.67 -87.63 0 -172.39 -452.68c-2.56,-7.47 -5.3,-15.07 -8.2,-22.78 -2.88,-7.73 -5.62,-15.07 -8.2,-22.01l-26.96 0c-2.56,6.94 -5.14,14.26 -7.7,22.01 -2.56,7.73 -5.46,15.31 -8.67,22.78l-172.39 452.68 -87.66 0 213.8 -532.67c1.93,-5.87 5.78,-10.53 11.56,-14 5.77,-3.47 12.52,-5.2 20.23,-5.2l88.6 0 0.01 0 0.01 0zm123.29 318.31l0 60.79 -337.1 0 0 -60.79 337.1 0z"/>
 </g>
</svg>
